<?xml version="1.0" encoding="UTF-8" standalone="no"?>
<svg width="8502px" height="2834px" viewBox="0 0 8502 2834" version="1.1" xmlns="http://www.w3.org/2000/svg" xmlns:xlink="http://www.w3.org/1999/xlink" style="background: #F3EB38;">
    <!-- Generator: Sketch 39.1 (31720) - http://www.bohemiancoding.com/sketch -->
    <title>Adesivo</title>
    <desc>Created with Sketch.</desc>
    <defs></defs>
    <g id="Page-1" stroke="none" stroke-width="1" fill="none" fill-rule="evenodd">
        <g id="Adesivo">
            <g id="Mask" transform="translate(5829.538000, 76.518000)">
                <path d="M2454.244,1251.13116 L2454.244,1251.13116 L2454.244,1157.11553 L2454.244,1095.64376 L2454.244,1034.172 C2454.244,1017.90006 2448.82225,992.588162 2443.40051,983.548197 C2436.17151,972.700239 2414.48452,961.852281 2400.02653,961.852281 L2334.96557,961.852281 C2318.70033,961.852281 2297.01335,952.812316 2291.5916,943.772351 C2284.3626,934.732386 2277.13361,911.228477 2277.13361,896.764533 C2277.13361,880.492595 2275.32636,849.756714 2273.51911,835.29277 C2271.71186,820.828826 2266.29011,795.516924 2262.67562,784.668966 C2259.06112,772.013015 2250.02487,750.317099 2244.60313,741.277134 C2237.37413,730.429176 2222.91614,712.349246 2215.68715,705.117274 C2208.45815,696.077309 2192.19291,681.613364 2183.15667,676.189385 C2174.12042,668.957413 2156.04793,656.301462 2147.01169,650.877483 C2136.16819,643.645511 2114.48121,632.797553 2103.63771,629.181567 C2090.98697,625.565581 2065.68549,618.333609 2053.03475,614.717623 C2040.384,611.101637 2022.31151,598.445686 2016.88977,589.405721 C2011.46802,578.557763 2000.62453,558.66984 1995.20278,549.629875 C1989.78103,538.781917 1978.93754,518.893994 1973.51579,509.854029 C1966.2868,499.006071 1953.63606,479.118147 1948.21431,470.078182 C1940.98531,461.038217 1926.52732,442.958287 1919.29833,433.918322 C1912.06933,424.878357 1897.61134,408.60642 1890.38234,401.374448 C1883.15335,392.334483 1868.69536,376.062546 1861.46636,368.830574 C1854.23737,359.790609 1839.77938,343.518672 1832.55038,336.2867 C1823.51414,327.246735 1807.2489,310.974798 1800.0199,303.742826 C1790.98366,296.510853 1772.91117,282.046909 1763.87492,274.814937 C1754.83868,267.582965 1736.76619,254.927014 1727.72994,249.503035 C1718.6937,242.271063 1700.62121,229.615112 1691.58497,224.191133 C1680.74147,218.767154 1660.86173,207.919196 1651.82549,202.495217 C1640.982,195.263245 1619.29501,184.415287 1608.45152,180.799301 C1597.60802,175.375322 1575.92104,164.527364 1565.07754,159.103385 C1554.23405,153.679406 1532.54706,144.639441 1521.70357,141.023455 C1509.05283,137.407469 1485.55859,130.175497 1474.7151,126.559511 C1462.06436,122.943525 1438.57012,115.711553 1427.72663,112.095567 C1415.07589,106.671588 1402.42514,86.7836644 1402.42514,72.3197204 C1400.61789,57.8557763 1393.3889,32.5438742 1387.96715,21.6959161 C1382.54541,10.8479581 1362.66567,1.61094249e-13 1348.20768,1.61094249e-13 L1286.76121,1.61094249e-13 L1221.70025,1.61094249e-13 L1160.25379,1.61094249e-13 L1095.19283,1.61094249e-13 C1078.92759,1.61094249e-13 1060.8551,12.6559511 1059.04785,25.3119021 C1055.43335,37.9678532 1050.01161,65.0877483 1048.20436,79.5516924 C1046.39711,92.2076435 1033.74637,110.287574 1022.90287,115.711553 C1010.25213,119.327539 984.950648,126.559511 972.299906,130.175497 C959.649163,131.98349 936.154928,139.215462 925.311434,144.639441 C912.660692,148.255427 889.166457,157.295392 878.322963,162.719371 C867.47947,166.335357 847.599732,175.375322 838.563487,180.799301 C827.719994,186.22328 807.840256,198.879231 798.804012,206.111203 C787.960518,211.535182 768.080781,222.38314 759.044536,227.807119 C748.201043,233.231098 728.321305,245.887049 719.28506,253.119021 C710.248816,260.350993 692.176327,274.814937 683.140082,282.046909 C674.103838,287.470888 657.838598,300.12684 650.609602,307.358812 C641.573358,314.590784 625.308118,330.862721 618.079122,339.902686 C609.042878,347.134658 592.777638,363.406595 585.548642,372.44656 C578.319647,379.678532 563.861655,395.950469 556.63266,404.990434 C547.596415,412.222406 533.138424,428.494343 527.716677,437.534308 C520.487682,446.574273 507.83694,464.654203 502.415193,473.694168 C495.186197,482.734133 482.535455,502.622057 477.113708,513.470015 C471.691962,524.317973 460.848468,546.013889 455.426722,556.861847 C450.004975,565.901812 439.161482,585.789735 433.739735,596.637693 C426.510739,605.677658 406.631001,618.333609 393.980259,621.949595 C381.329517,623.757588 357.835281,629.181567 346.991788,632.797553 C334.341046,636.413539 312.654059,647.261497 303.617814,654.493469 C292.774321,659.917448 274.701832,672.573399 267.472837,679.805371 C258.436592,687.037343 242.171352,703.309281 234.942356,712.349246 C227.713361,721.389211 215.062619,739.469141 209.640872,748.509106 C202.411876,757.549071 191.568383,779.244987 187.953885,791.900938 C184.339387,802.748896 178.917641,828.060798 177.110392,842.524742 C175.303143,856.988686 173.495894,887.724567 173.495894,903.996505 C173.495894,918.460449 164.459649,940.156365 155.423405,947.388337 C146.387161,954.620309 122.892925,961.852281 108.434934,961.852281 L57.8319647,961.852281 C46.9884713,961.852281 27.1087334,969.084253 18.072489,976.316225 C9.03624448,983.548197 0,1007.05211 0,1023.32404 L0,1084.79581 L0,1149.88355 L0,1211.35532 L0,1272.82708 C0,1289.09902 14.4579912,1307.17895 28.9159823,1308.98694 C41.5667246,1310.79493 70.4827069,1312.60292 86.747947,1312.60292 C103.013187,1312.60292 133.736418,1314.41092 148.194409,1316.21891 C160.845152,1318.0269 177.110392,1332.49085 180.72489,1345.1468 C182.532138,1357.80275 187.953885,1383.11465 191.568383,1395.7706 C195.182881,1408.42655 206.026374,1430.12247 213.25537,1439.16244 C218.677116,1448.2024 231.327859,1466.28233 238.556854,1475.3223 C245.78585,1484.36226 262.05109,1500.6342 271.087334,1507.86617 C278.31633,1515.09814 296.388819,1527.75409 307.232312,1533.17807 C316.268557,1538.60205 337.955543,1549.45001 350.606286,1554.87399 C361.449779,1558.48997 386.751264,1563.91395 401.209255,1565.72195 C413.859997,1567.52994 442.775979,1569.33793 459.041219,1569.33793 C473.499211,1567.52994 496.993446,1565.72195 506.029691,1565.72195 C515.065935,1563.91395 529.523926,1572.95392 534.945673,1583.80188 C540.36742,1592.84184 551.210913,1614.53776 556.63266,1627.19371 C560.247158,1638.04167 569.283402,1659.73758 574.705149,1670.58554 C578.319647,1681.4335 587.355891,1704.93741 592.777638,1717.59336 C596.392135,1728.44132 605.42838,1750.13723 610.850127,1760.98519 C614.464624,1771.83315 623.500869,1793.52907 628.922616,1804.37702 C634.344362,1813.41699 645.187856,1835.1129 650.609602,1847.76886 C654.2241,1858.61681 663.260345,1880.31273 668.682091,1891.16069 C672.296589,1902.00865 681.332834,1925.51255 686.75458,1938.16851 C690.369078,1949.01646 686.75458,1967.09639 679.525585,1974.32837 C672.296589,1979.75235 654.2241,1990.6003 643.380607,1996.02428 C632.537113,1999.64027 610.850127,2008.68023 600.006633,2014.10421 C587.355891,2017.7202 569.283402,2012.29622 563.861655,2003.25625 C556.63266,1994.21629 543.981918,1974.32837 538.560171,1963.48041 C533.138424,1952.63245 516.873184,1941.78449 506.029691,1941.78449 C493.378948,1941.78449 469.884713,1947.20847 459.041219,1952.63245 C448.197726,1956.24844 426.510739,1965.2884 415.667246,1970.71238 C403.016504,1974.32837 379.522268,1983.36833 368.678775,1988.79231 C357.835281,1992.4083 336.148295,2001.44826 325.304801,2006.87224 C312.654059,2010.48823 289.159823,2019.52819 278.31633,2024.95217 C267.472837,2028.56816 247.593099,2039.41611 238.556854,2046.64809 C229.52061,2052.07207 220.484365,2070.152 220.484365,2082.80795 C220.484365,2095.4639 225.906112,2118.96781 231.327859,2129.81576 C234.942356,2140.66372 243.978601,2164.16763 249.400348,2176.82358 C253.014845,2187.67154 262.05109,2209.36746 267.472837,2220.21542 C272.894583,2229.25538 281.930828,2250.9513 285.545325,2263.60725 C289.159823,2274.45521 298.196068,2296.15112 303.617814,2306.99908 C309.039561,2317.84704 319.883054,2339.54295 325.304801,2350.39091 C328.919299,2361.23887 337.955543,2384.74278 343.37729,2397.39873 C346.991788,2408.24669 356.028032,2429.9426 361.449779,2440.79056 C365.064277,2451.63852 374.100521,2473.33444 379.522268,2484.18239 C383.136766,2495.03035 392.17301,2518.53426 397.594757,2531.19021 C401.209255,2542.03817 410.245499,2563.73409 415.667246,2574.58205 C419.281744,2585.43 428.317988,2607.12592 433.739735,2617.97388 C439.161482,2628.82184 450.004975,2650.51775 455.426722,2661.36571 C460.848468,2670.40567 477.113708,2681.25363 487.957202,2683.06163 C496.993446,2684.86962 518.680433,2683.06163 531.331175,2679.44564 C542.174669,2674.02166 563.861655,2664.9817 574.705149,2661.36571 C585.548642,2655.94173 609.042878,2646.90177 621.69362,2643.28578 C632.537113,2637.8618 654.2241,2628.82184 665.067594,2625.20585 C675.911087,2619.78187 697.598074,2610.74191 708.441567,2607.12592 C719.28506,2601.70194 740.972047,2590.85398 751.815541,2585.43 C760.851785,2578.19803 771.695278,2560.1181 773.502527,2549.27014 C775.309776,2536.61419 771.695278,2513.11028 766.273532,2502.26232 C760.851785,2491.41437 764.466283,2473.33444 773.502527,2466.10246 C780.731523,2458.87049 798.804012,2448.02253 809.647505,2444.40655 C820.490999,2438.98257 843.985234,2429.9426 856.635976,2426.32662 C867.47947,2420.90264 889.166457,2420.90264 900.00995,2426.32662 C909.046194,2431.7506 928.925932,2444.40655 939.769426,2451.63852 C948.80567,2457.0625 968.685408,2467.91046 979.528901,2473.33444 C988.565146,2478.75842 1008.44488,2489.60637 1019.28838,2495.03035 C1030.13187,2498.64634 1053.62611,2505.87831 1066.27685,2509.4943 C1078.92759,2513.11028 1104.22908,2520.34225 1116.87982,2523.95824 C1129.53056,2525.76623 1156.63929,2529.38222 1171.09728,2531.19021 C1185.55528,2532.99821 1216.27851,2534.8062 1232.54375,2534.8062 C1247.00174,2534.8062 1275.91772,2532.99821 1290.37571,2531.19021 C1303.02645,2529.38222 1330.13519,2525.76623 1344.59318,2523.95824 C1357.24392,2520.34225 1380.73816,2513.11028 1391.58165,2509.4943 C1402.42514,2504.07032 1425.91938,2495.03035 1438.57012,2491.41437 C1449.41361,2485.99039 1471.1006,2475.14243 1481.94409,2469.71845 C1490.98034,2464.29447 1509.05283,2453.44651 1518.08907,2448.02253 C1527.12532,2440.79056 1548.8123,2429.9426 1561.46305,2426.32662 C1572.30654,2420.90264 1593.99353,2420.90264 1604.83702,2426.32662 C1615.68051,2429.9426 1637.3675,2438.98257 1648.21099,2444.40655 C1659.05449,2449.83053 1675.31973,2464.29447 1680.74147,2473.33444 C1686.16322,2480.56641 1687.97047,2498.64634 1684.35597,2509.4943 C1678.93422,2520.34225 1677.12697,2543.84616 1680.74147,2556.50211 C1682.54872,2567.35007 1695.19946,2583.62201 1706.04296,2589.04599 C1716.88645,2592.66198 1740.38069,2601.70194 1753.03143,2607.12592 C1763.87492,2610.74191 1785.56191,2619.78187 1796.4054,2625.20585 C1807.2489,2628.82184 1828.93588,2637.8618 1839.77938,2643.28578 C1850.62287,2646.90177 1872.30986,2655.94173 1883.15335,2661.36571 C1893.99684,2666.78969 1917.49108,2675.82965 1930.14182,2679.44564 C1940.98531,2683.06163 1962.6723,2684.86962 1973.51579,2683.06163 C1982.55204,2679.44564 1997.01003,2666.78969 2002.43178,2657.74972 C2007.85352,2646.90177 2018.69702,2625.20585 2024.11876,2614.35789 C2027.73326,2603.50993 2036.76951,2581.81402 2042.19125,2570.96606 C2045.80575,2558.31011 2054.84199,2534.8062 2060.26374,2523.95824 C2063.87824,2513.11028 2072.91448,2491.41437 2078.33623,2480.56641 C2081.95073,2467.91046 2090.98697,2446.21454 2096.40872,2437.17458 C2101.83047,2426.32662 2112.67396,2404.6307 2118.09571,2393.78274 C2121.7102,2382.93479 2130.74645,2361.23887 2136.16819,2350.39091 C2139.78269,2337.73496 2148.81894,2314.23105 2154.24068,2303.38309 C2157.85518,2292.53514 2166.89143,2270.83922 2172.31317,2259.99126 C2175.92767,2247.33531 2184.96391,2223.8314 2190.38566,2212.98344 C2194.00016,2202.13549 2203.0364,2180.43957 2208.45815,2169.59161 C2212.07265,2158.74365 2221.10889,2137.04774 2226.53064,2126.19978 C2230.14514,2113.54383 2233.75963,2088.23193 2233.75963,2075.57597 C2231.95239,2062.92002 2219.30164,2044.84009 2208.45815,2039.41611 C2197.61466,2033.99214 2175.92767,2024.95217 2165.08418,2021.33618 C2154.24068,2015.91221 2132.5537,2006.87224 2121.7102,2003.25625 C2109.05946,1997.83228 2085.56523,1988.79231 2074.72173,1985.17632 C2063.87824,1979.75235 2042.19125,1970.71238 2031.34776,1967.09639 C2020.50427,1961.67241 1998.81728,1952.63245 1987.97378,1949.01646 C1975.32304,1943.59248 1951.82881,1941.78449 1940.98531,1945.40048 C1930.14182,1947.20847 1913.87658,1959.86442 1908.45483,1970.71238 C1903.03309,1981.56034 1890.38234,1999.64027 1883.15335,2006.87224 C1875.92435,2012.29622 1857.85186,2014.10421 1847.00837,2010.48823 C1836.16488,2005.06425 1814.47789,1996.02428 1803.6344,1992.4083 C1790.98366,1986.98432 1772.91117,1974.32837 1767.48942,1967.09639 C1762.06767,1958.05643 1762.06767,1938.16851 1767.48942,1927.32055 C1772.91117,1916.47259 1783.75466,1894.77667 1789.17641,1883.92872 C1792.7909,1873.08076 1801.82715,1851.38484 1807.2489,1840.53688 C1810.86339,1829.68893 1819.89964,1807.99301 1825.32138,1797.14505 C1828.93588,1784.4891 1837.97213,1760.98519 1843.39387,1750.13723 C1847.00837,1739.28927 1856.04462,1717.59336 1861.46636,1706.7454 C1865.08086,1694.08945 1874.1171,1670.58554 1879.53885,1659.73758 C1883.15335,1648.88962 1892.18959,1627.19371 1897.61134,1616.34575 C1901.22584,1605.49779 1912.06933,1585.60987 1919.29833,1576.5699 C1926.52732,1567.52994 1946.40706,1562.10596 1959.0578,1565.72195 C1971.70854,1567.52994 2000.62453,1569.33793 2016.88977,1569.33793 C2033.15501,1569.33793 2062.07099,1565.72195 2074.72173,1562.10596 C2085.56523,1558.48997 2107.25221,1551.258 2118.09571,1547.64202 C2128.9392,1542.21804 2150.62619,1531.37008 2161.46968,1525.9461 C2170.50592,1518.71413 2188.57841,1504.25018 2197.61466,1497.01821 C2204.84365,1489.78624 2219.30164,1473.5143 2226.53064,1464.47434 C2233.75963,1455.43437 2246.41038,1437.35444 2251.83212,1428.31448 C2257.25387,1417.46652 2266.29011,1393.96261 2269.90461,1381.30666 C2271.71186,1368.65071 2278.94086,1345.1468 2284.3626,1334.29884 C2289.78435,1323.45088 2311.47134,1312.60292 2327.73658,1312.60292 L2389.18304,1312.60292 C2405.44828,1312.60292 2430.74976,1298.13898 2439.78601,1283.67504 L2454.244,1251.13116 L2454.244,1251.13116 Z" id="Shape" stroke="#000000" stroke-width="1.9838" fill="#000000"></path>
                <path d="M2371.11055,1157.11553 L2371.11055,1157.11553 C2371.11055,1111.9157 2367.49605,1084.79581 2363.88156,1073.94785 C2358.45981,1061.2919 2338.58007,1048.63595 2324.12208,1048.63595 C2307.85684,1048.63595 2287.9771,1061.2919 2284.3626,1073.94785 C2280.74811,1086.6038 2277.13361,1115.53169 2277.13361,1131.80362 C2277.13361,1146.26757 2278.94086,1175.19546 2280.74811,1189.6594 C2280.74811,1204.12334 2297.01335,1220.39528 2313.27859,1222.20327 C2327.73658,1222.20327 2349.42356,1205.93134 2356.65256,1189.6594 L2371.11055,1157.11553 L2371.11055,1157.11553 Z" id="Shape" fill="#25323A"></path>
                <path d="M2194.00016,1265.59511 L2194.00016,1265.59511 L2194.00016,1171.57947 L2194.00016,1110.10771 L2194.00016,1045.01996 L2194.00016,983.548197 L2194.00016,922.076435 C2194.00016,905.804498 2192.19291,875.068616 2190.38566,860.604672 C2188.57841,846.140728 2183.15667,820.828826 2179.54217,809.980868 C2174.12042,799.13291 2161.46968,779.244987 2154.24068,770.205022 C2147.01169,761.165057 2130.74645,746.701113 2121.7102,741.277134 C2112.67396,734.045162 2092.79422,723.197204 2081.95073,719.581218 C2071.10723,714.157239 2045.80575,706.925267 2031.34776,705.117274 C2016.88977,703.309281 1987.97378,701.501288 1973.51579,701.501288 L1908.45483,701.501288 L1847.00837,701.501288 L1785.56191,701.501288 L1720.50095,701.501288 L1659.05449,701.501288 L1593.99353,701.501288 L1532.54706,701.501288 L1471.1006,701.501288 L1406.03964,701.501288 L1344.59318,701.501288 L1279.53222,701.501288 L1218.08576,701.501288 L1156.63929,701.501288 L1091.57833,701.501288 L1030.13187,701.501288 L965.07091,701.501288 L903.624448,701.501288 L842.177985,701.501288 L777.117025,701.501288 L715.670563,701.501288 L650.609602,701.501288 L589.16314,701.501288 L527.716677,701.501288 L462.655717,701.501288 C446.390477,701.501288 417.474495,705.117274 404.823753,708.73326 C392.17301,710.541253 368.678775,717.773225 357.835281,723.197204 C346.991788,728.621183 328.919299,741.277134 321.690303,748.509106 C312.654059,755.741078 298.196068,772.013015 292.774321,781.05298 C285.545325,790.092945 274.701832,811.788861 271.087334,824.444812 C267.472837,837.100763 263.858339,864.220658 263.858339,878.684602 C262.05109,893.148547 260.243841,923.884428 260.243841,940.156365 L260.243841,1005.24411 L260.243841,1066.71588 L260.243841,1128.18764 L260.243841,1193.27539 L260.243841,1254.74715 C260.243841,1271.01909 262.05109,1301.75497 263.858339,1316.21891 C265.665588,1328.87486 271.087334,1354.18676 274.701832,1366.84271 C278.31633,1377.69067 289.159823,1397.5786 296.388819,1406.61856 C303.617814,1415.65853 319.883054,1431.93046 328.919299,1439.16244 C336.148295,1446.39441 354.220784,1459.05036 365.064277,1464.47434 C375.90777,1469.89832 401.209255,1477.13029 415.667246,1478.93828 C428.317988,1480.74627 453.619473,1480.74627 466.270215,1478.93828 C478.920957,1475.3223 504.222442,1468.09032 516.873184,1464.47434 C529.523926,1460.85835 554.825411,1453.62638 567.476153,1450.01039 C578.319647,1446.39441 601.813882,1439.16244 614.464624,1435.54645 C627.115367,1431.93046 652.416851,1424.69849 665.067594,1421.08251 C675.911087,1417.46652 699.405323,1410.23455 712.056065,1406.61856 C722.899558,1403.00258 746.393794,1395.7706 759.044536,1392.15462 C769.888029,1386.73064 793.382265,1377.69067 806.033007,1374.07469 C816.876501,1370.4587 840.370736,1363.22673 853.021479,1359.61074 C865.672221,1355.99476 890.973705,1348.76278 903.624448,1345.1468 C914.467941,1341.53081 937.962177,1334.29884 950.612919,1330.68285 C961.456412,1327.06687 984.950648,1319.8349 997.60139,1316.21891 C1010.25213,1312.60292 1035.55362,1305.37095 1048.20436,1301.75497 C1059.04785,1298.13898 1082.54209,1290.90701 1095.19283,1287.29102 C1107.84357,1283.67504 1129.53056,1274.63507 1138.5668,1269.21109 C1147.60305,1261.97912 1165.67554,1247.51518 1174.71178,1240.2832 C1181.94078,1233.05123 1200.01327,1220.39528 1210.85676,1214.9713 C1219.893,1207.73933 1237.96549,1207.73933 1247.00174,1214.9713 C1254.23073,1222.20327 1270.49597,1236.66722 1279.53222,1243.89919 C1288.56846,1251.13116 1308.4482,1263.78711 1319.29169,1269.21109 C1328.32794,1274.63507 1350.01492,1283.67504 1362.66567,1287.29102 C1373.50916,1290.90701 1397.0034,1299.94697 1409.65414,1305.37095 C1420.49763,1308.98694 1443.99187,1316.21891 1456.64261,1319.8349 C1469.29335,1321.64289 1494.59484,1328.87486 1507.24558,1334.29884 C1518.08907,1337.91483 1541.58331,1345.1468 1554.23405,1348.76278 C1565.07754,1352.37877 1588.57178,1359.61074 1601.22252,1363.22673 C1612.06601,1366.84271 1635.56025,1374.07469 1648.21099,1377.69067 C1660.86173,1381.30666 1686.16322,1388.53863 1698.81396,1392.15462 C1709.65746,1395.7706 1733.15169,1403.00258 1745.80243,1406.61856 C1758.45318,1410.23455 1783.75466,1417.46652 1796.4054,1421.08251 C1807.2489,1424.69849 1830.74313,1431.93046 1843.39387,1435.54645 C1854.23737,1439.16244 1877.7316,1446.39441 1890.38234,1450.01039 C1903.03309,1453.62638 1928.33457,1460.85835 1940.98531,1464.47434 C1951.82881,1468.09032 1977.13029,1475.3223 1991.58828,1478.93828 C2004.23903,1480.74627 2029.54051,1480.74627 2042.19125,1478.93828 C2054.84199,1475.3223 2078.33623,1468.09032 2089.17972,1464.47434 C2100.02322,1459.05036 2119.90295,1446.39441 2128.9392,1439.16244 C2137.97544,1431.93046 2154.24068,1415.65853 2161.46968,1406.61856 C2166.89143,1397.5786 2177.73492,1377.69067 2183.15667,1366.84271 C2186.77116,1354.18676 2192.19291,1323.45088 2194.00016,1305.37095 L2194.00016,1265.59511 L2194.00016,1265.59511 Z" id="Shape" fill="#546677"></path>
                <path d="M2107.25221,2090.03992 L2107.25221,2090.03992 C2074.72173,2077.38397 2053.03475,2068.344 2042.19125,2064.72802 C2029.54051,2059.30404 2007.85352,2050.26407 1998.81728,2046.64809 C1987.97378,2043.0321 1971.70854,2050.26407 1966.2868,2061.11203 C1960.86505,2071.95999 1951.82881,2093.6559 1948.21431,2104.50386 C1942.79256,2115.35182 1933.75632,2137.04774 1930.14182,2147.89569 C1924.72007,2158.74365 1915.68383,2182.24756 1912.06933,2194.90351 C1906.64758,2205.75147 1897.61134,2227.44739 1893.99684,2238.29535 L1872.30986,2281.68718 C1866.88811,2292.53514 1857.85186,2314.23105 1854.23737,2325.07901 C1848.81562,2335.92697 1839.77938,2357.62288 1836.16488,2368.47084 C1830.74313,2379.3188 1821.70689,2402.82271 1818.09239,2415.47866 C1812.67064,2426.32662 1803.6344,2448.02253 1800.0199,2458.87049 C1794.59815,2469.71845 1789.17641,2493.22236 1789.17641,2505.87831 C1787.36916,2516.72627 1796.4054,2532.99821 1807.2489,2538.42218 C1818.09239,2542.03817 1839.77938,2551.07814 1850.62287,2556.50211 C1861.46636,2560.1181 1884.9606,2569.15807 1897.61134,2574.58205 C1908.45483,2578.19803 1926.52732,2574.58205 1933.75632,2567.35007 C1940.98531,2558.31011 1953.63606,2538.42218 1959.0578,2527.57423 C1962.6723,2514.91828 1971.70854,2491.41437 1977.13029,2480.56641 C1980.74479,2469.71845 1989.78103,2449.83053 1995.20278,2440.79056 C2000.62453,2429.9426 2011.46802,2408.24669 2016.88977,2397.39873 C2022.31151,2386.55077 2031.34776,2364.85486 2034.96226,2354.0069 C2038.57675,2341.35095 2047.613,2317.84704 2053.03475,2306.99908 C2058.45649,2296.15112 2069.29999,2274.45521 2074.72173,2263.60725 C2078.33623,2252.75929 2087.37247,2231.06337 2092.79422,2220.21542 C2096.40872,2209.36746 2105.44496,2187.67154 2110.86671,2176.82358 C2114.48121,2164.16763 2116.28846,2137.04774 2114.48121,2122.58379 L2107.25221,2090.03992 L2107.25221,2090.03992 Z" id="Shape" fill="#25323A"></path>
                <path d="M2103.63771,1276.44306 L2103.63771,1276.44306 L2103.63771,1182.42743 L2103.63771,1120.95567 L2103.63771,1055.86792 L2103.63771,994.396155 L2103.63771,932.924393 C2103.63771,916.652456 2101.83047,885.916574 2100.02322,871.45263 C2098.21597,856.988686 2090.98697,833.484777 2085.56523,824.444812 C2078.33623,815.404847 2060.26374,802.748896 2049.42025,799.13291 C2036.76951,793.708931 2009.66077,788.284952 1995.20278,788.284952 L1933.75632,788.284952 L1868.69536,788.284952 L1807.2489,788.284952 L1742.18794,788.284952 L1680.74147,788.284952 L1619.29501,788.284952 L1554.23405,788.284952 L1492.78759,788.284952 L1427.72663,788.284952 C1411.46139,788.284952 1384.35265,791.900938 1373.50916,795.516924 C1360.85842,799.13291 1342.78593,811.788861 1337.36418,820.828826 C1330.13519,829.868791 1321.09894,853.3727 1319.29169,867.836644 C1315.6772,880.492595 1312.0627,909.420484 1312.0627,925.692421 L1312.0627,987.164183 L1312.0627,1052.25193 C1312.0627,1066.71588 1313.86995,1095.64376 1315.6772,1110.10771 C1315.6772,1124.57165 1321.09894,1149.88355 1326.52069,1160.73151 C1331.94244,1171.57947 1348.20768,1187.85141 1359.05117,1193.27539 C1368.08741,1198.69937 1389.7744,1207.73933 1402.42514,1211.35532 C1415.07589,1214.9713 1440.37737,1222.20327 1453.02811,1225.81926 C1463.87161,1229.43525 1487.36584,1236.66722 1500.01658,1240.2832 C1510.86008,1243.89919 1534.35431,1251.13116 1547.00505,1254.74715 C1559.6558,1258.36313 1584.95728,1265.59511 1597.60802,1269.21109 C1608.45152,1272.82708 1631.94575,1281.86704 1644.59649,1287.29102 C1655.43999,1290.90701 1678.93422,1298.13898 1691.58497,1301.75497 C1702.42846,1305.37095 1725.9227,1312.60292 1738.57344,1316.21891 C1749.41693,1319.8349 1772.91117,1327.06687 1785.56191,1330.68285 C1798.21265,1334.29884 1823.51414,1341.53081 1836.16488,1345.1468 C1847.00837,1348.76278 1870.50261,1355.99476 1883.15335,1359.61074 C1895.80409,1363.22673 1921.10558,1370.4587 1933.75632,1374.07469 C1944.59981,1377.69067 1968.09405,1384.92265 1980.74479,1388.53863 C1993.39553,1390.34662 2018.69702,1390.34662 2031.34776,1388.53863 C2043.9985,1386.73064 2065.68549,1377.69067 2074.72173,1370.4587 C2081.95073,1363.22673 2092.79422,1336.10683 2096.40872,1316.21891 L2103.63771,1276.44306 L2103.63771,1276.44306 Z" id="Shape" stroke="#000000" stroke-width="1.9838" fill="#000000"></path>
                <path d="M2020.50427,1251.13116 L2020.50427,1251.13116 L2020.50427,1157.11553 L2020.50427,1095.64376 L2020.50427,1030.55602 L2020.50427,969.084253 L2020.50427,907.612491 C2018.69702,893.148547 2002.43178,878.684602 1987.97378,878.684602 C1971.70854,876.876609 1940.98531,875.068616 1926.52732,875.068616 L1861.46636,875.068616 L1800.0199,875.068616 L1738.57344,875.068616 L1673.51248,875.068616 L1612.06601,875.068616 L1547.00505,875.068616 L1485.55859,875.068616 C1469.29335,875.068616 1440.37737,876.876609 1427.72663,878.684602 C1413.26864,880.492595 1398.81065,898.572526 1398.81065,914.844463 L1398.81065,979.932211 L1398.81065,1041.40397 C1398.81065,1057.67591 1402.42514,1086.6038 1406.03964,1099.25975 C1409.65414,1110.10771 1425.91938,1124.57165 1438.57012,1128.18764 C1449.41361,1131.80362 1472.90785,1140.84359 1485.55859,1146.26757 C1496.40209,1149.88355 1519.89632,1157.11553 1532.54706,1160.73151 C1545.19781,1162.5395 1570.49929,1169.77148 1583.15003,1175.19546 C1593.99353,1178.81144 1617.48776,1186.04341 1630.1385,1189.6594 C1640.982,1193.27539 1664.47623,1200.50736 1677.12697,1204.12334 C1687.97047,1207.73933 1711.4647,1214.9713 1724.11545,1218.58729 C1736.76619,1222.20327 1762.06767,1229.43525 1774.71842,1233.05123 C1785.56191,1236.66722 1809.05614,1243.89919 1821.70689,1247.51518 C1834.35763,1251.13116 1859.65911,1258.36313 1872.30986,1261.97912 C1883.15335,1265.59511 1906.64758,1272.82708 1919.29833,1276.44306 C1930.14182,1280.05905 1953.63606,1287.29102 1966.2868,1290.90701 C1978.93754,1294.52299 1998.81728,1287.29102 2006.04627,1276.44306 L2020.50427,1251.13116 L2020.50427,1251.13116 Z" id="Shape" fill="#BFC6CF"></path>
                <path d="M1912.06933,582.173749 L1912.06933,582.173749 C1895.80409,553.245861 1883.15335,533.357938 1875.92435,524.317973 C1868.69536,515.278008 1856.04462,497.198078 1850.62287,488.158112 C1843.39387,479.118147 1828.93588,461.038217 1821.70689,451.998252 C1814.47789,442.958287 1800.0199,426.68635 1792.7909,419.454378 C1783.75466,412.222406 1767.48942,397.758462 1760.26042,390.52649 C1751.22418,383.294518 1733.15169,368.830574 1724.11545,361.598602 C1715.0792,354.36663 1698.81396,339.902686 1691.58497,332.670714 C1682.54872,325.438742 1664.47623,312.782791 1655.43999,307.358812 C1644.59649,300.12684 1624.71676,287.470888 1615.68051,282.046909 C1604.83702,276.62293 1584.95728,265.774972 1575.92104,260.350993 C1565.07754,254.927014 1543.39056,245.887049 1532.54706,242.271063 C1519.89632,236.847084 1496.40209,227.807119 1485.55859,224.191133 C1472.90785,220.575147 1447.60637,213.343175 1434.95562,209.727189 C1422.30488,206.111203 1407.84689,213.343175 1406.03964,224.191133 C1402.42514,235.039091 1398.81065,262.158986 1398.81065,278.430923 L1398.81065,339.902686 L1398.81065,404.990434 L1398.81065,466.462196 L1398.81065,531.549945 C1398.81065,546.013889 1402.42514,573.133784 1406.03964,585.789735 C1407.84689,598.445686 1425.91938,611.101637 1442.18462,611.101637 L1507.24558,611.101637 L1568.69204,611.101637 L1633.753,611.101637 L1695.19946,611.101637 L1756.64593,611.101637 L1821.70689,611.101637 C1836.16488,611.101637 1866.88811,612.90963 1883.15335,614.717623 C1897.61134,614.717623 1912.06933,607.485651 1912.06933,600.253679 L1912.06933,582.173749 L1912.06933,582.173749 Z" id="Shape" fill="#25323A"></path>
                <path d="M1814.47789,2090.03992 L1814.47789,2090.03992 C1781.94741,2077.38397 1765.68217,2079.19196 1760.26042,2086.42393 C1753.03143,2091.84791 1743.99518,2109.92784 1742.18794,2122.58379 C1738.57344,2135.23974 1731.34444,2160.55165 1727.72994,2173.2076 C1722.3082,2184.05556 1713.27195,2205.75147 1709.65746,2216.59943 C1704.23571,2227.44739 1693.39222,2249.1433 1687.97047,2259.99126 C1682.54872,2269.03123 1671.70523,2288.91915 1666.28348,2299.76711 C1659.05449,2308.80707 1650.01824,2325.07901 1648.21099,2332.31098 C1644.59649,2339.54295 1653.63274,2352.1989 1666.28348,2357.62288 C1677.12697,2361.23887 1700.62121,2368.47084 1713.27195,2372.08683 C1724.11545,2375.70281 1740.38069,2368.47084 1745.80243,2357.62288 C1749.41693,2346.77493 1758.45318,2325.07901 1763.87492,2314.23105 C1767.48942,2301.5751 1776.52566,2278.07119 1781.94741,2267.22323 C1785.56191,2256.37528 1794.59815,2234.67936 1800.0199,2223.8314 C1805.44165,2212.98344 1816.28514,2191.28753 1821.70689,2180.43957 C1825.32138,2169.59161 1825.32138,2142.47172 1821.70689,2126.19978 L1814.47789,2090.03992 L1814.47789,2090.03992 Z" id="Shape" fill="#546677"></path>
                <path d="M1800.0199,1515.09814 L1800.0199,1515.09814 C1765.68217,1504.25018 1740.38069,1497.01821 1727.72994,1493.40223 C1715.0792,1489.78624 1691.58497,1482.55427 1680.74147,1478.93828 C1668.09073,1475.3223 1642.78925,1468.09032 1630.1385,1464.47434 C1617.48776,1460.85835 1593.99353,1453.62638 1583.15003,1450.01039 C1570.49929,1446.39441 1547.00505,1439.16244 1536.16156,1435.54645 C1523.51082,1431.93046 1498.20933,1424.69849 1485.55859,1421.08251 C1472.90785,1417.46652 1449.41361,1410.23455 1438.57012,1406.61856 C1425.91938,1403.00258 1402.42514,1395.7706 1391.58165,1392.15462 C1378.93091,1386.73064 1355.43667,1377.69067 1344.59318,1374.07469 C1331.94244,1370.4587 1308.4482,1363.22673 1297.60471,1359.61074 C1286.76121,1354.18676 1266.88148,1343.33881 1257.84523,1337.91483 C1247.00174,1330.68285 1227.122,1327.06687 1218.08576,1330.68285 C1209.04951,1332.49085 1189.16977,1339.72282 1178.32628,1345.1468 C1167.48279,1350.57078 1145.7958,1361.41874 1134.95231,1366.84271 C1124.10881,1370.4587 1102.42183,1377.69067 1091.57833,1381.30666 C1078.92759,1384.92265 1053.62611,1392.15462 1040.97536,1395.7706 C1028.32462,1399.38659 1004.83039,1406.61856 993.986892,1410.23455 C981.33615,1413.85053 956.034666,1421.08251 943.383923,1424.69849 C930.733181,1428.31448 907.238946,1435.54645 896.395452,1439.16244 C883.74471,1442.77842 860.250474,1450.01039 849.406981,1453.62638 C836.756239,1457.24237 813.262003,1466.28233 802.41851,1471.70631 C789.767767,1475.3223 766.273532,1482.55427 755.430038,1486.17025 C742.779296,1489.78624 717.477811,1497.01821 704.827069,1500.6342 C692.176327,1504.25018 668.682091,1511.48216 657.838598,1515.09814 C645.187856,1518.71413 630.729865,1531.37008 628.922616,1540.41004 C625.308118,1549.45001 627.115367,1569.33793 632.537113,1580.18589 C637.95886,1591.03385 648.802353,1612.72976 654.2241,1623.57772 C657.838598,1634.42568 666.874842,1657.92959 672.296589,1670.58554 C675.911087,1681.4335 684.947331,1703.12941 690.369078,1713.97737 C693.983576,1724.82533 703.01982,1746.52125 708.441567,1757.3692 C712.056065,1768.21716 717.477811,1791.72107 719.28506,1804.37702 C721.092309,1817.03297 728.321305,1831.49692 733.743052,1833.30491 C739.164798,1833.30491 746.393794,1820.64896 748.201043,1807.99301 C750.008292,1795.33706 757.237287,1773.64114 762.659034,1764.60118 C768.080781,1753.75322 780.731523,1733.8653 787.960518,1724.82533 C793.382265,1715.78537 806.033007,1697.70544 813.262003,1688.66547 C820.490999,1679.62551 834.94899,1663.35357 842.177985,1656.1216 C849.406981,1647.08163 865.672221,1630.80969 874.708465,1623.57772 C881.937461,1614.53776 898.202701,1600.07381 907.238946,1594.64983 C916.27519,1587.41786 934.347679,1574.76191 943.383923,1569.33793 C952.420168,1562.10596 972.299906,1549.45001 983.143399,1544.02603 C993.986892,1538.60205 1015.67388,1529.56209 1026.51737,1525.9461 C1037.36087,1520.52212 1060.8551,1511.48216 1073.50584,1507.86617 C1086.15659,1504.25018 1111.45807,1498.8262 1124.10881,1497.01821 C1136.75956,1493.40223 1163.86829,1489.78624 1178.32628,1489.78624 C1192.78427,1487.97825 1223.5075,1487.97825 1239.77274,1489.78624 C1254.23073,1489.78624 1283.14672,1491.59423 1297.60471,1493.40223 C1310.25545,1495.21022 1337.36418,1500.6342 1351.82217,1504.25018 C1364.47292,1506.05818 1389.7744,1511.48216 1402.42514,1515.09814 C1413.26864,1518.71413 1434.95562,1527.75409 1445.79912,1533.17807 C1454.83536,1538.60205 1474.7151,1549.45001 1485.55859,1554.87399 C1496.40209,1560.29797 1516.28182,1572.95392 1525.31807,1580.18589 C1534.35431,1585.60987 1552.4268,1600.07381 1561.46305,1609.11378 C1568.69204,1616.34575 1584.95728,1630.80969 1593.99353,1638.04167 C1601.22252,1645.27364 1615.68051,1661.54558 1622.90951,1670.58554 C1630.1385,1677.81751 1644.59649,1695.89744 1651.82549,1706.7454 C1657.24724,1715.78537 1669.89798,1733.8653 1677.12697,1742.90526 C1682.54872,1751.94523 1693.39222,1773.64114 1698.81396,1786.29709 C1702.42846,1797.14505 1709.65746,1813.41699 1713.27195,1818.84097 C1716.88645,1822.45695 1724.11545,1817.03297 1727.72994,1807.99301 C1729.53719,1798.95304 1736.76619,1779.06512 1742.18794,1768.21716 C1745.80243,1755.56121 1754.83868,1732.0573 1760.26042,1721.20934 C1763.87492,1710.36139 1772.91117,1688.66547 1778.33291,1677.81751 C1781.94741,1665.16156 1790.98366,1641.65765 1796.4054,1630.80969 C1800.0199,1619.96174 1809.05614,1598.26582 1814.47789,1587.41786 C1818.09239,1576.5699 1816.28514,1553.06599 1810.86339,1540.41004 L1800.0199,1515.09814 L1800.0199,1515.09814 Z" id="Shape" fill="#25323A"></path>
                <path d="M1662.66898,1992.4083 L1662.66898,1992.4083 C1657.24724,1952.63245 1653.63274,1925.51255 1651.82549,1912.8566 C1648.21099,1898.39266 1640.982,1873.08076 1637.3675,1862.2328 C1631.94575,1851.38484 1621.10226,1829.68893 1615.68051,1818.84097 C1610.25877,1807.99301 1599.41527,1788.10509 1593.99353,1779.06512 C1588.57178,1768.21716 1575.92104,1750.13723 1568.69204,1742.90526 C1561.46305,1733.8653 1547.00505,1717.59336 1539.77606,1710.36139 C1530.73981,1701.32142 1514.47457,1685.04948 1507.24558,1677.81751 C1498.20933,1670.58554 1480.13685,1657.92959 1471.1006,1652.50561 C1460.25711,1645.27364 1440.37737,1632.61769 1431.34113,1627.19371 C1420.49763,1621.76973 1398.81065,1612.72976 1387.96715,1609.11378 C1377.12366,1603.6898 1353.62942,1594.64983 1340.97868,1591.03385 C1328.32794,1587.41786 1303.02645,1581.99388 1290.37571,1580.18589 C1275.91772,1578.3779 1247.00174,1576.5699 1232.54375,1576.5699 C1218.08576,1576.5699 1189.16977,1578.3779 1174.71178,1580.18589 C1160.25379,1580.18589 1134.95231,1583.80188 1124.10881,1587.41786 C1111.45807,1591.03385 1087.96384,1600.07381 1077.12034,1605.49779 C1064.4696,1609.11378 1040.97536,1618.15374 1030.13187,1623.57772 C1019.28838,1627.19371 999.408639,1638.04167 990.372395,1645.27364 C979.528901,1650.69762 961.456412,1663.35357 954.227417,1670.58554 C945.191172,1677.81751 928.925932,1692.28146 921.696937,1699.51343 C912.660692,1706.7454 896.395452,1723.01734 889.166457,1732.0573 C881.937461,1741.09727 869.286719,1759.1772 863.864972,1768.21716 C856.635976,1777.25713 843.985234,1797.14505 838.563487,1807.99301 C833.141741,1818.84097 824.105496,1840.53688 820.490999,1851.38484 C815.069252,1862.2328 807.840256,1885.73671 806.033007,1898.39266 C802.41851,1911.04861 796.996763,1938.16851 795.189514,1952.63245 C791.575016,1965.2884 787.960518,1994.21629 787.960518,2010.48823 C787.960518,2024.95217 789.767767,2053.88006 791.575016,2068.344 C793.382265,2082.80795 798.804012,2109.92784 802.41851,2122.58379 C806.033007,2133.43175 815.069252,2155.12767 820.490999,2165.97562 C824.105496,2176.82358 833.141741,2198.5195 838.563487,2209.36746 C843.985234,2220.21542 854.828728,2241.91133 860.250474,2252.75929 C865.672221,2261.79925 880.130212,2279.87918 889.166457,2288.91915 C896.395452,2296.15112 910.853443,2312.42306 918.082439,2321.46302 C925.311434,2328.695 941.576675,2343.15894 950.612919,2350.39091 C959.649163,2355.81489 979.528901,2368.47084 990.372395,2375.70281 C999.408639,2381.12679 1019.28838,2391.97475 1030.13187,2397.39873 C1039.16811,2402.82271 1060.8551,2413.67067 1073.50584,2419.09465 C1084.34934,2422.71063 1107.84357,2429.9426 1120.49432,2433.55859 C1131.33781,2437.17458 1156.63929,2442.59856 1171.09728,2444.40655 L1232.54375,2444.40655 C1248.80899,2444.40655 1279.53222,2442.59856 1293.99021,2440.79056 C1306.64095,2438.98257 1331.94244,2433.55859 1344.59318,2429.9426 C1357.24392,2426.32662 1380.73816,2419.09465 1391.58165,2415.47866 C1402.42514,2410.05468 1424.11213,2399.20672 1434.95562,2393.78274 C1443.99187,2388.35877 1463.87161,2377.51081 1474.7151,2372.08683 C1483.75134,2364.85486 1501.82383,2350.39091 1510.86008,2343.15894 C1518.08907,2335.92697 1534.35431,2321.46302 1543.39056,2314.23105 C1550.61955,2305.19109 1565.07754,2287.11116 1572.30654,2278.07119 C1577.72829,2269.03123 1590.37903,2250.9513 1597.60802,2241.91133 C1603.02977,2232.87137 1613.87326,2212.98344 1619.29501,2202.13549 C1624.71676,2191.28753 1633.753,2169.59161 1637.3675,2158.74365 C1640.982,2146.0877 1648.21099,2120.7758 1651.82549,2108.11985 C1653.63274,2093.6559 1657.24724,2057.49604 1659.05449,2035.80013 L1662.66898,1992.4083 L1662.66898,1992.4083 Z" id="Shape" fill="#546677"></path>
                <path d="M1547.00505,1977.94435 L1547.00505,1977.94435 C1523.51082,1956.24844 1501.82383,1950.82446 1489.17309,1952.63245 C1474.7151,1952.63245 1453.02811,1959.86442 1445.79912,1967.09639 C1436.76287,1974.32837 1427.72663,1996.02428 1427.72663,2010.48823 C1427.72663,2024.95217 1436.76287,2046.64809 1445.79912,2053.88006 C1453.02811,2061.11203 1472.90785,2070.152 1485.55859,2071.95999 C1498.20933,2071.95999 1519.89632,2064.72802 1528.93257,2057.49604 C1537.96881,2050.26407 1547.00505,2026.76016 1547.00505,2010.48823 L1547.00505,1977.94435 L1547.00505,1977.94435 Z" id="Shape" stroke="#000000" stroke-width="1.9838" fill="#000000"></path>
                <path d="M1312.0627,549.629875 L1312.0627,549.629875 L1312.0627,455.614238 L1312.0627,394.142476 L1312.0627,329.054728 L1312.0627,267.582965 L1312.0627,206.111203 L1312.0627,141.023455 C1312.0627,124.751518 1301.2192,104.863595 1290.37571,101.247609 C1279.53222,95.8236295 1252.42348,90.3996505 1236.15824,90.3996505 L1174.71178,90.3996505 C1158.44654,90.3996505 1142.1813,104.863595 1142.1813,119.327539 C1140.37405,133.791483 1138.5668,164.527364 1138.5668,180.799301 L1138.5668,245.887049 L1138.5668,307.358812 L1138.5668,372.44656 L1138.5668,433.918322 L1138.5668,495.390085 L1138.5668,560.477833 C1138.5668,574.941777 1149.4103,594.8297 1160.25379,600.253679 C1171.09728,605.677658 1198.20602,611.101637 1214.47126,611.101637 L1275.91772,611.101637 C1290.37571,611.101637 1306.64095,596.637693 1308.4482,582.173749 L1312.0627,549.629875 L1312.0627,549.629875 Z" id="Shape" fill="#25323A"></path>
                <path d="M1283.14672,2238.29535 L1283.14672,2238.29535 C1256.03798,2220.21542 1234.351,2212.98344 1221.70025,2212.98344 C1209.04951,2212.98344 1189.16977,2222.02341 1181.94078,2231.06337 C1174.71178,2238.29535 1167.48279,2259.99126 1167.48279,2274.45521 C1165.67554,2287.11116 1171.09728,2308.80707 1178.32628,2317.84704 C1185.55528,2325.07901 1203.62776,2334.11897 1214.47126,2335.92697 C1225.31475,2335.92697 1247.00174,2330.50299 1257.84523,2325.07901 C1268.68872,2319.65503 1281.33947,2296.15112 1283.14672,2278.07119 L1283.14672,2238.29535 L1283.14672,2238.29535 Z" id="Shape" stroke="#000000" stroke-width="1.9838" fill="#000000"></path>
                <path d="M1283.14672,1977.94435 L1283.14672,1977.94435 C1259.65248,1956.24844 1237.96549,1949.01646 1225.31475,1949.01646 C1212.66401,1949.01646 1192.78427,1956.24844 1185.55528,1963.48041 C1176.51903,1970.71238 1167.48279,1992.4083 1167.48279,2006.87224 C1165.67554,2019.52819 1171.09728,2041.22411 1178.32628,2050.26407 C1185.55528,2057.49604 1205.43501,2068.344 1218.08576,2071.95999 C1230.7365,2073.76798 1252.42348,2068.344 1261.45973,2061.11203 C1270.49597,2053.88006 1281.33947,2030.37615 1283.14672,2014.10421 L1283.14672,1977.94435 L1283.14672,1977.94435 Z" id="Shape" stroke="#000000" stroke-width="1.9838" fill="#000000"></path>
                <path d="M1283.14672,1713.97737 L1283.14672,1713.97737 C1256.03798,1695.89744 1234.351,1688.66547 1221.70025,1688.66547 C1209.04951,1688.66547 1189.16977,1697.70544 1181.94078,1706.7454 C1174.71178,1713.97737 1167.48279,1735.67329 1167.48279,1750.13723 C1165.67554,1762.79318 1171.09728,1784.4891 1178.32628,1793.52907 C1185.55528,1800.76104 1203.62776,1809.801 1214.47126,1811.609 C1225.31475,1811.609 1247.00174,1806.18502 1257.84523,1800.76104 C1268.68872,1795.33706 1281.33947,1771.83315 1283.14672,1753.75322 L1283.14672,1713.97737 L1283.14672,1713.97737 Z" id="Shape" stroke="#000000" stroke-width="1.9838" fill="#000000"></path>
                <path d="M1138.5668,1081.17982 L1138.5668,1081.17982 L1138.5668,987.164183 L1138.5668,925.692421 C1138.5668,909.420484 1136.75956,880.492595 1134.95231,867.836644 C1131.33781,853.3727 1122.30156,829.868791 1116.87982,820.828826 C1109.65082,811.788861 1091.57833,799.13291 1080.73484,795.516924 C1068.0841,791.900938 1039.16811,788.284952 1022.90287,788.284952 L961.456412,788.284952 L896.395452,788.284952 L834.94899,788.284952 L773.502527,788.284952 L708.441567,788.284952 L646.995105,788.284952 L581.934144,788.284952 L520.487682,788.284952 L459.041219,788.284952 C442.775979,788.284952 415.667246,793.708931 404.823753,799.13291 C393.980259,804.556889 375.90777,819.020833 368.678775,828.060798 C361.449779,835.29277 354.220784,858.796679 354.220784,875.068616 C352.413535,889.53256 350.606286,920.268442 350.606286,936.540379 L350.606286,998.012141 L350.606286,1059.4839 L350.606286,1124.57165 L350.606286,1186.04341 L350.606286,1251.13116 C350.606286,1265.59511 352.413535,1294.52299 354.220784,1308.98694 C354.220784,1323.45088 361.449779,1346.95479 368.678775,1355.99476 C375.90777,1365.03472 393.980259,1379.49867 404.823753,1384.92265 C415.667246,1388.53863 439.161482,1390.34662 451.812224,1388.53863 C464.462966,1386.73064 489.764451,1381.30666 502.415193,1377.69067 C513.258686,1374.07469 536.752922,1366.84271 549.403664,1363.22673 C560.247158,1359.61074 583.741393,1352.37877 596.392135,1348.76278 C609.042878,1345.1468 634.344362,1337.91483 646.995105,1334.29884 C657.838598,1330.68285 681.332834,1323.45088 693.983576,1319.8349 C706.634318,1316.21891 731.935803,1308.98694 744.586545,1305.37095 C755.430038,1301.75497 778.924274,1294.52299 791.575016,1290.90701 C802.41851,1287.29102 825.912745,1280.05905 838.563487,1276.44306 C851.21423,1272.82708 876.515714,1265.59511 889.166457,1261.97912 C900.00995,1258.36313 923.504186,1251.13116 936.154928,1247.51518 C946.998421,1242.0912 970.492657,1234.85923 983.143399,1233.05123 C995.794141,1229.43525 1021.09563,1222.20327 1033.74637,1218.58729 C1044.58986,1214.9713 1066.27685,1205.93134 1077.12034,1200.50736 C1087.96384,1195.08338 1106.03632,1182.42743 1113.26532,1175.19546 C1120.49432,1166.15549 1131.33781,1139.0356 1134.95231,1120.95567 L1138.5668,1081.17982 L1138.5668,1081.17982 Z" id="Shape" stroke="#000000" stroke-width="1.9838" fill="#000000"></path>
                <path d="M1051.81886,1052.25193 L1051.81886,1052.25193 L1051.81886,958.236295 C1051.81886,941.964358 1050.01161,913.03647 1048.20436,900.380519 C1044.58986,887.724567 1024.71012,875.068616 1008.44488,875.068616 L946.998421,875.068616 L885.551959,875.068616 L820.490999,875.068616 L759.044536,875.068616 L693.983576,875.068616 L632.537113,875.068616 L571.090651,875.068616 L506.029691,875.068616 C489.764451,875.068616 464.462966,882.300588 455.426722,889.53256 C446.390477,894.95654 437.354233,916.652456 437.354233,932.924393 L437.354233,998.012141 L437.354233,1059.4839 L437.354233,1120.95567 L437.354233,1186.04341 L437.354233,1247.51518 C437.354233,1263.78711 439.161482,1287.29102 440.96873,1294.52299 C442.775979,1299.94697 457.233971,1301.75497 469.884713,1298.13898 C480.728206,1294.52299 504.222442,1287.29102 516.873184,1283.67504 C527.716677,1278.25106 551.210913,1269.21109 563.861655,1265.59511 C574.705149,1261.97912 598.199384,1254.74715 610.850127,1251.13116 C623.500869,1247.51518 648.802353,1240.2832 661.453096,1236.66722 C672.296589,1233.05123 695.790825,1225.81926 708.441567,1222.20327 C719.28506,1218.58729 742.779296,1211.35532 755.430038,1207.73933 C768.080781,1204.12334 793.382265,1196.89137 806.033007,1193.27539 C816.876501,1189.6594 840.370736,1182.42743 853.021479,1178.81144 C865.672221,1175.19546 890.973705,1167.96348 903.624448,1164.3475 C914.467941,1160.73151 937.962177,1153.49954 950.612919,1149.88355 C961.456412,1146.26757 984.950648,1139.0356 997.60139,1135.41961 C1010.25213,1131.80362 1030.13187,1110.10771 1037.36087,1092.02778 L1051.81886,1052.25193 L1051.81886,1052.25193 Z" id="Shape" fill="#BFC6CF"></path>
                <path d="M1051.81886,546.013889 L1051.81886,546.013889 L1051.81886,451.998252 L1051.81886,390.52649 L1051.81886,325.438742 L1051.81886,263.966979 C1051.81886,247.695042 1046.39711,225.999126 1040.97536,220.575147 C1035.55362,213.343175 1017.48113,209.727189 1004.83039,213.343175 C992.179644,216.959161 968.685408,224.191133 957.841915,227.807119 C945.191172,231.423105 921.696937,240.46307 910.853443,245.887049 C900.00995,251.311028 878.322963,262.158986 867.47947,267.582965 C856.635976,271.198951 836.756239,282.046909 827.719994,289.278881 C818.68375,294.70286 800.611261,307.358812 791.575016,314.590784 C780.731523,320.014763 760.851785,332.670714 751.815541,339.902686 C742.779296,345.326665 724.706807,357.982616 715.670563,365.214588 C706.634318,372.44656 690.369078,388.718497 683.140082,397.758462 C675.911087,404.990434 661.453096,419.454378 654.2241,426.68635 C645.187856,433.918322 628.922616,450.190259 621.69362,459.230224 C614.464624,468.270189 601.813882,486.350119 596.392135,495.390085 C589.16314,504.43005 576.512398,524.317973 571.090651,535.165931 C563.861655,544.205896 551.210913,562.285826 545.789166,571.325791 C538.560171,580.365756 531.331175,598.445686 531.331175,607.485651 C531.331175,614.717623 545.789166,620.141602 560.247158,618.333609 C572.8979,614.717623 601.813882,611.101637 618.079122,611.101637 L679.525585,611.101637 L744.586545,611.101637 L806.033007,611.101637 L867.47947,611.101637 L932.54043,611.101637 L993.986892,611.101637 C1010.25213,611.101637 1033.74637,594.8297 1040.97536,578.557763 L1051.81886,546.013889 L1051.81886,546.013889 Z" id="Shape" fill="#546677"></path>
                <path d="M1019.28838,1981.56034 L1019.28838,1981.56034 C997.60139,1958.05643 977.721652,1950.82446 965.07091,1952.63245 C950.612919,1952.63245 928.925932,1959.86442 921.696937,1967.09639 C912.660692,1974.32837 903.624448,1996.02428 903.624448,2010.48823 C901.817199,2023.14418 907.238946,2044.84009 914.467941,2053.88006 C921.696937,2061.11203 941.576675,2070.152 954.227417,2071.95999 C966.878159,2071.95999 990.372395,2066.53601 1001.21589,2061.11203 C1010.25213,2053.88006 1019.28838,2030.37615 1019.28838,2014.10421 L1019.28838,1981.56034 L1019.28838,1981.56034 Z" id="Shape" stroke="#000000" stroke-width="1.9838" fill="#000000"></path>
                <path d="M791.575016,2310.61507 L791.575016,2310.61507 C775.309776,2281.68718 764.466283,2259.99126 759.044536,2249.1433 C753.622789,2238.29535 744.586545,2216.59943 740.972047,2205.75147 C735.5503,2194.90351 726.514056,2173.2076 722.899558,2162.35964 C717.477811,2149.70369 710.248816,2124.39179 708.441567,2111.73583 C706.634318,2097.27189 699.405323,2080.99995 693.983576,2079.19196 C688.561829,2075.57597 672.296589,2077.38397 661.453096,2082.80795 C648.802353,2086.42393 628.922616,2097.27189 621.69362,2104.50386 C614.464624,2109.92784 612.657376,2128.00777 618.079122,2140.66372 C621.69362,2151.51168 630.729865,2173.2076 636.151611,2184.05556 C639.766109,2194.90351 648.802353,2216.59943 654.2241,2227.44739 C657.838598,2238.29535 666.874842,2261.79925 672.296589,2274.45521 C675.911087,2285.30316 684.947331,2306.99908 690.369078,2317.84704 C693.983576,2328.695 703.01982,2350.39091 708.441567,2361.23887 C713.863314,2372.08683 730.128554,2379.3188 740.972047,2375.70281 C751.815541,2370.27883 773.502527,2361.23887 784.346021,2357.62288 C795.189514,2352.1989 802.41851,2337.73496 798.804012,2328.695 L791.575016,2310.61507 L791.575016,2310.61507 Z" id="Shape" fill="#25323B"></path>
                <path d="M657.838598,2476.95042 L657.838598,2476.95042 C645.187856,2444.40655 636.151611,2422.71063 632.537113,2411.86267 C627.115367,2399.20672 618.079122,2375.70281 614.464624,2364.85486 C609.042878,2354.0069 600.006633,2332.31098 596.392135,2321.46302 C590.970389,2308.80707 581.934144,2285.30316 578.319647,2274.45521 C572.8979,2263.60725 563.861655,2241.91133 560.247158,2231.06337 C554.825411,2220.21542 543.981918,2198.5195 538.560171,2187.67154 C533.138424,2176.82358 524.10218,2155.12767 520.487682,2144.27971 C515.065935,2133.43175 506.029691,2111.73583 502.415193,2100.88788 C496.993446,2088.23193 486.149953,2066.53601 480.728206,2057.49604 C475.306459,2046.64809 460.848468,2041.22411 451.812224,2046.64809 L408.43825,2068.344 C395.787508,2071.95999 372.293272,2080.99995 361.449779,2086.42393 C350.606286,2090.03992 336.148295,2102.69587 332.533797,2111.73583 C328.919299,2120.7758 330.726548,2140.66372 336.148295,2151.51168 C339.762792,2162.35964 348.799037,2184.05556 354.220784,2194.90351 C357.835281,2205.75147 366.871526,2227.44739 372.293272,2238.29535 C377.715019,2249.1433 388.558513,2270.83922 393.980259,2281.68718 C397.594757,2292.53514 406.631001,2316.03904 412.052748,2328.695 C415.667246,2339.54295 424.70349,2361.23887 430.125237,2372.08683 C433.739735,2382.93479 442.775979,2404.6307 448.197726,2415.47866 C451.812224,2426.32662 460.848468,2449.83053 466.270215,2462.48648 C469.884713,2473.33444 478.920957,2495.03035 484.342704,2505.87831 C487.957202,2516.72627 496.993446,2540.23018 502.415193,2552.88613 C506.029691,2563.73409 520.487682,2574.58205 531.331175,2574.58205 C542.174669,2572.77405 563.861655,2567.35007 574.705149,2563.73409 C585.548642,2558.31011 609.042878,2549.27014 621.69362,2545.65416 C632.537113,2540.23018 646.995105,2520.34225 650.609602,2505.87831 L657.838598,2476.95042 L657.838598,2476.95042 Z" id="Shape" fill="#546677"></path>
                <path d="M173.495894,1160.73151 L173.495894,1160.73151 C173.495894,1115.53169 169.881396,1086.6038 166.266898,1073.94785 C162.652401,1061.2919 144.579912,1048.63595 130.12192,1048.63595 C113.85668,1048.63595 95.7841915,1063.09989 93.9769426,1077.56383 C90.3624448,1090.21978 86.747947,1119.14767 86.747947,1135.41961 C86.747947,1149.88355 88.5551959,1178.81144 90.3624448,1193.27539 C90.3624448,1207.73933 103.013187,1224.01127 115.663929,1225.81926 C126.507423,1225.81926 146.387161,1209.54732 155.423405,1193.27539 L173.495894,1160.73151 L173.495894,1160.73151 Z" id="Shape" fill="#546677"></path>
            </g>
            <path d="M436.243288,529.742616 L388.722776,529.742616 L397.632872,456.976832 L445.153384,456.976832 L436.243288,529.742616 Z M457.033512,367.875872 L409.513,367.875872 L425.848176,235.709448 L336.747216,235.709448 L320.41204,367.875872 L255.071336,367.875872 L255.071336,456.976832 L308.531912,456.976832 L299.621816,529.742616 L235.02362,529.742616 L235.02362,618.843576 L287.741688,618.843576 L271.406512,751.01 L360.507472,751.01 L376.842648,618.843576 L424.36316,618.843576 L408.027984,751.01 L497.128944,751.01 L513.46412,618.843576 L578.804824,618.843576 L578.804824,529.742616 L525.344248,529.742616 L534.254344,456.976832 L598.85254,456.976832 L598.85254,367.875872 L546.134472,367.875872 L562.469648,235.709448 L473.368688,235.709448 L457.033512,367.875872 Z M630.037876,881.691408 L774.084428,881.691408 L774.084428,704.231996 L775.569444,704.231996 C788.934588,740.614888 826.059988,761.405112 864.670404,761.405112 C964.908984,761.405112 981.24416,669.33412 981.24416,556.472904 C981.24416,461.43188 981.24416,338.91806 855.760308,338.91806 C793.389636,338.91806 778.539476,376.04346 773.34192,395.348668 L771.856904,395.348668 L771.856904,349.313172 L630.037876,349.313172 L630.037876,881.691408 Z M837.197608,550.53284 C837.197608,625.526148 832.74256,654.48396 804.527256,654.48396 C776.311952,654.48396 771.856904,625.526148 771.856904,550.53284 C771.856904,474.797024 776.311952,445.839212 804.527256,445.839212 C832.74256,445.839212 837.197608,474.797024 837.197608,550.53284 L837.197608,550.53284 Z M1207.7091,614.388528 C1207.7091,637.406276 1201.76904,663.394056 1173.55373,663.394056 C1153.50602,663.394056 1144.59592,647.05888 1144.59592,623.298624 C1144.59592,599.538368 1148.30846,580.975668 1172.06872,572.065572 C1187.66138,566.125508 1198.799,562.412968 1207.7091,556.472904 L1207.7091,614.388528 Z M1338.39051,454.749308 C1338.39051,392.378636 1312.40273,338.91806 1180.97881,338.91806 C1066.63258,338.91806 1019.11207,383.46854 1019.11207,474.054516 L1145.33843,474.054516 C1145.33843,451.036768 1149.79348,428.01902 1180.2363,428.01902 C1195.82897,428.01902 1207.7091,439.15664 1207.7091,459.204356 C1207.7091,485.192136 1197.31399,494.102232 1167.61367,500.784804 L1100.78795,516.377472 C1046.58486,529.000108 1005.00442,553.502872 1005.00442,642.603832 C1005.00442,720.567172 1037.67477,761.405112 1114.15309,761.405112 C1154.99103,761.405112 1191.37392,747.29746 1208.45161,707.944536 L1209.93662,708.687044 C1209.93662,722.052188 1211.42164,736.902348 1216.6192,751.01 L1351.75565,751.01 C1342.84556,732.4473 1338.39051,712.399584 1338.39051,691.60936 L1338.39051,454.749308 Z M1374.03089,621.813608 C1376.25842,733.932316 1433.43153,761.405112 1538.12516,761.405112 C1627.22612,761.405112 1702.96194,726.507236 1702.96194,627.011164 C1702.96194,541.622744 1653.95641,522.317536 1613.86098,508.209884 C1526.98754,477.767056 1507.68233,470.341976 1507.68233,451.036768 C1507.68233,428.761528 1523.275,423.563972 1538.12516,423.563972 C1553.71783,423.563972 1561.88542,427.276512 1567.08297,434.701592 C1571.53802,441.384164 1573.02304,453.264292 1573.02304,463.659404 L1694.79435,463.659404 C1694.79435,426.534004 1694.79435,338.91806 1534.41262,338.91806 C1423.03642,338.91806 1377.00092,393.121144 1377.00092,474.054516 C1377.00092,547.562808 1418.58137,569.09554 1511.39487,601.765892 C1563.37043,620.328592 1567.82548,626.268656 1567.82548,645.573864 C1567.82548,652.998944 1563.37043,676.7592 1538.12516,676.7592 C1521.78998,676.7592 1512.87989,670.819136 1507.68233,661.166532 C1502.48478,651.513928 1501.74227,638.891292 1500.25725,621.813608 L1374.03089,621.813608 Z M1717.8121,621.813608 C1720.03962,733.932316 1777.21274,761.405112 1881.90636,761.405112 C1971.00732,761.405112 2046.74314,726.507236 2046.74314,627.011164 C2046.74314,541.622744 1997.73761,522.317536 1957.64218,508.209884 C1870.76874,477.767056 1851.46354,470.341976 1851.46354,451.036768 C1851.46354,428.761528 1867.0562,423.563972 1881.90636,423.563972 C1897.49903,423.563972 1905.66662,427.276512 1910.86418,434.701592 C1915.31922,441.384164 1916.80424,453.264292 1916.80424,463.659404 L2038.57555,463.659404 C2038.57555,426.534004 2038.57555,338.91806 1878.19382,338.91806 C1766.81762,338.91806 1720.78213,393.121144 1720.78213,474.054516 C1720.78213,547.562808 1762.36258,569.09554 1855.17608,601.765892 C1907.15164,620.328592 1911.60668,626.268656 1911.60668,645.573864 C1911.60668,652.998944 1907.15164,676.7592 1881.90636,676.7592 C1865.57119,676.7592 1856.66109,670.819136 1851.46354,661.166532 C1846.26598,651.513928 1845.52347,638.891292 1844.03846,621.813608 L1717.8121,621.813608 Z M2266.52551,614.388528 C2266.52551,637.406276 2260.58544,663.394056 2232.37014,663.394056 C2212.32242,663.394056 2203.41233,647.05888 2203.41233,623.298624 C2203.41233,599.538368 2207.12487,580.975668 2230.88512,572.065572 C2246.47779,566.125508 2257.61541,562.412968 2266.52551,556.472904 L2266.52551,614.388528 Z M2397.20692,454.749308 C2397.20692,392.378636 2371.21914,338.91806 2239.79522,338.91806 C2125.44899,338.91806 2077.92848,383.46854 2077.92848,474.054516 L2204.15484,474.054516 C2204.15484,451.036768 2208.60988,428.01902 2239.05271,428.01902 C2254.64538,428.01902 2266.52551,439.15664 2266.52551,459.204356 C2266.52551,485.192136 2256.1304,494.102232 2226.43008,500.784804 L2159.60436,516.377472 C2105.40127,529.000108 2063.82082,553.502872 2063.82082,642.603832 C2063.82082,720.567172 2096.49118,761.405112 2172.9695,761.405112 C2213.80744,761.405112 2250.19033,747.29746 2267.26802,707.944536 L2268.75303,708.687044 C2268.75303,722.052188 2270.23805,736.902348 2275.4356,751.01 L2410.57206,751.01 C2401.66196,732.4473 2397.20692,712.399584 2397.20692,691.60936 L2397.20692,454.749308 Z M2646.6896,751.01 L2790.73616,751.01 L2790.73616,440.641656 C2790.73616,367.133364 2743.95815,338.91806 2692.7251,338.91806 C2644.46208,338.91806 2608.07919,355.995744 2586.54646,395.348668 L2585.06144,395.348668 L2585.06144,349.313172 L2445.46994,349.313172 L2445.46994,751.01 L2589.51649,751.01 L2589.51649,485.192136 C2589.51649,462.174388 2599.16909,445.839212 2618.4743,445.839212 C2637.037,445.839212 2646.6896,454.749308 2646.6896,485.192136 L2646.6896,751.01 Z M2852.36432,349.313172 L2808.55635,349.313172 L2808.55635,442.86918 L2852.36432,442.86918 L2852.36432,663.394056 C2852.36432,753.980032 2893.20226,756.950064 2975.62065,756.950064 C2997.15338,756.950064 3035.02129,753.980032 3046.90142,752.495016 L3046.90142,656.711484 C3041.70386,658.1965 3035.02129,658.939008 3023.88367,658.939008 C3000.12341,658.939008 2996.41087,647.801388 2996.41087,621.813608 L2996.41087,442.86918 L3046.90142,442.86918 L3046.90142,349.313172 L2996.41087,349.313172 L2996.41087,231.2544 L2852.36432,231.2544 L2852.36432,349.313172 Z M3198.37305,573.550588 L3395.88018,573.550588 L3395.88018,566.868016 C3395.88018,441.384164 3394.39516,338.91806 3230.30089,338.91806 C3071.40418,338.91806 3054.3265,436.929116 3054.3265,549.790332 C3054.3265,663.394056 3071.40418,761.405112 3230.30089,761.405112 C3279.30642,761.405112 3320.14436,750.267492 3348.35966,726.507236 C3376.57497,702.74698 3391.42513,664.879072 3391.42513,609.93348 L3260.74372,609.93348 C3260.74372,650.77142 3257.77369,676.7592 3229.55838,676.7592 C3199.85806,676.7592 3198.37305,647.801388 3198.37305,626.268656 L3198.37305,573.550588 Z M3260.74372,497.814772 L3198.37305,497.814772 L3198.37305,474.054516 C3198.37305,434.701592 3208.02565,423.563972 3228.81588,423.563972 C3251.83362,423.563972 3260.74372,434.701592 3260.74372,474.054516 L3260.74372,497.814772 Z M3623.08762,396.091176 L3621.60261,396.091176 C3608.23746,359.708284 3571.11206,338.91806 3532.50165,338.91806 C3432.26307,338.91806 3415.92789,430.989052 3415.92789,543.850268 C3415.92789,638.891292 3415.92789,761.405112 3541.41174,761.405112 C3603.78242,761.405112 3618.63258,724.279712 3623.83013,704.974504 L3625.31515,704.974504 L3625.31515,751.01 L3767.13418,751.01 L3767.13418,220.859288 L3623.08762,220.859288 L3623.08762,396.091176 Z M3625.31515,549.790332 C3625.31515,625.526148 3620.8601,654.48396 3592.6448,654.48396 C3564.42949,654.48396 3559.97444,625.526148 3559.97444,549.790332 C3559.97444,474.797024 3564.42949,445.839212 3592.6448,445.839212 C3620.8601,445.839212 3625.31515,474.797024 3625.31515,549.790332 L3625.31515,549.790332 Z M3810.94215,751.01 L3954.9887,751.01 L3954.9887,349.313172 L3810.94215,349.313172 L3810.94215,751.01 Z M3810.94215,317.385328 L3954.9887,317.385328 L3954.9887,214.919224 L3810.94215,214.919224 L3810.94215,317.385328 Z M4403.46353,751.01 L4547.51008,751.01 L4547.51008,440.641656 C4547.51008,367.133364 4500.73208,338.91806 4449.49903,338.91806 C4401.23601,338.91806 4364.85312,355.995744 4344.06289,395.348668 C4323.27267,355.253236 4286.88978,338.91806 4248.27936,338.91806 C4200.01634,338.91806 4163.63345,355.995744 4142.10072,395.348668 L4140.6157,395.348668 L4140.6157,349.313172 L4001.0242,349.313172 L4001.0242,751.01 L4145.07075,751.01 L4145.07075,485.192136 C4145.07075,462.174388 4154.72335,445.839212 4174.02856,445.839212 C4192.59126,445.839212 4202.24386,454.749308 4202.24386,485.192136 L4202.24386,751.01 L4346.29042,751.01 L4346.29042,485.192136 C4346.29042,462.174388 4355.94302,445.839212 4375.24823,445.839212 C4393.81093,445.839212 4403.46353,454.749308 4403.46353,485.192136 L4403.46353,751.01 Z M4723.48448,573.550588 L4920.99161,573.550588 L4920.99161,566.868016 C4920.99161,441.384164 4919.50659,338.91806 4755.41232,338.91806 C4596.51561,338.91806 4579.43793,436.929116 4579.43793,549.790332 C4579.43793,663.394056 4596.51561,761.405112 4755.41232,761.405112 C4804.41785,761.405112 4845.25579,750.267492 4873.4711,726.507236 C4901.6864,702.74698 4916.53656,664.879072 4916.53656,609.93348 L4785.85515,609.93348 C4785.85515,650.77142 4782.88512,676.7592 4754.66982,676.7592 C4724.9695,676.7592 4723.48448,647.801388 4723.48448,626.268656 L4723.48448,573.550588 Z M4785.85515,497.814772 L4723.48448,497.814772 L4723.48448,474.054516 C4723.48448,434.701592 4733.13708,423.563972 4753.92731,423.563972 C4776.94506,423.563972 4785.85515,434.701592 4785.85515,474.054516 L4785.85515,497.814772 Z M4940.29682,641.118816 L4940.29682,751.01 L5257.34773,751.01 L5257.34773,639.6338 L5110.33115,639.6338 L5252.15018,456.234324 L5252.15018,349.313172 L4946.97939,349.313172 L4946.97939,460.689372 L5075.43327,460.689372 L4940.29682,641.118816 Z M5284.07802,641.118816 L5284.07802,751.01 L5601.12894,751.01 L5601.12894,639.6338 L5454.11235,639.6338 L5595.93138,456.234324 L5595.93138,349.313172 L5290.76059,349.313172 L5290.76059,460.689372 L5419.21448,460.689372 L5284.07802,641.118816 Z M5800.12108,338.91806 C5641.22437,338.91806 5624.14668,436.929116 5624.14668,549.790332 C5624.14668,663.394056 5641.22437,761.405112 5800.12108,761.405112 C5959.01779,761.405112 5976.09548,663.394056 5976.09548,549.790332 C5976.09548,436.929116 5959.01779,338.91806 5800.12108,338.91806 L5800.12108,338.91806 Z M5768.19324,549.790332 C5768.19324,456.234324 5774.1333,431.73156 5800.12108,431.73156 C5826.10886,431.73156 5832.04892,456.234324 5832.04892,549.790332 C5832.04892,643.34634 5826.10886,667.849104 5800.12108,667.849104 C5774.1333,667.849104 5768.19324,643.34634 5768.19324,549.790332 L5768.19324,549.790332 Z" id="#passantedimezzo" fill="#000000"></path>
            <g id="Group" transform="translate(234.534000, 1031.750000)" fill="#000000">
                <path d="M695.958888,975.081072 L691.628536,975.081072 L470.780584,31.064336 L0.937392,31.064336 L0.937392,1577 L394.999424,1577 L394.999424,624.32256 L399.329776,624.32256 L639.664312,1577 L1103.01198,1577 L1103.01198,31.064336 L695.958888,31.064336 L695.958888,975.081072 Z M1906.29227,804.032168 C1906.29227,1256.55395 1888.97086,1321.50923 1795.8683,1321.50923 C1702.76573,1321.50923 1685.44432,1256.55395 1685.44432,804.032168 C1685.44432,351.510384 1702.76573,286.555104 1795.8683,286.555104 C1888.97086,286.555104 1906.29227,351.510384 1906.29227,804.032168 L1906.29227,804.032168 Z M1239.41806,804.032168 C1239.41806,1297.6923 1239.41806,1607.31246 1795.8683,1607.31246 C2352.31853,1607.31246 2352.31853,1297.6923 2352.31853,804.032168 C2352.31853,325.528272 2352.31853,0.751872 1795.8683,0.751872 C1239.41806,0.751872 1239.41806,325.528272 1239.41806,804.032168 L1239.41806,804.032168 Z" id="NO"></path>
                <path d="M2829.76818,1323.52705 L2885.66032,1323.52705 L2885.66032,1371.57469 C2885.66032,1423.54458 2877.81581,1459.82545 2830.74874,1459.82545 C2783.68167,1459.82545 2779.75941,1408.83612 2779.75941,1365.6913 L2779.75941,1077.40549 C2779.75941,1035.24124 2782.7011,991.115856 2829.76818,991.115856 C2868.01017,991.115856 2879.77694,1018.57165 2879.77694,1070.54154 L2879.77694,1098.9779 L3064.12297,1098.9779 C3064.12297,958.757244 3021.95872,861.681408 2827.80705,861.681408 C2588.54943,861.681408 2577.76323,1026.41616 2577.76323,1226.45122 C2577.76323,1414.7195 2583.64661,1589.2599 2782.7011,1589.2599 C2839.57382,1589.2599 2893.50484,1580.43482 2926.84401,1518.65929 L2928.80514,1518.65929 L2933.70796,1575.532 L3070.00636,1575.532 L3070.00636,1194.0926 L2829.76818,1194.0926 L2829.76818,1323.52705 Z M3122.95681,1575.532 L3313.18623,1575.532 L3313.18623,1300.97408 C3313.18623,1238.21798 3328.87525,1203.89824 3394.57304,1203.89824 C3414.18432,1203.89824 3422.02883,1203.89824 3430.85391,1204.87881 C3439.67898,1205.85937 3447.5235,1206.83994 3454.38744,1207.8205 L3454.38744,1034.26067 C3448.50406,1033.28011 3442.62068,1031.31898 3422.02883,1031.31898 C3370.05894,1031.31898 3327.89469,1072.50267 3309.26397,1123.492 L3307.30284,1123.492 L3307.30284,1045.04688 L3122.95681,1045.04688 L3122.95681,1575.532 Z M3739.73157,1395.10822 C3739.73157,1425.50571 3731.88706,1459.82545 3694.62562,1459.82545 C3668.1504,1459.82545 3656.38363,1438.25304 3656.38363,1406.87499 C3656.38363,1375.49694 3661.28645,1350.98284 3692.6645,1339.21608 C3713.25634,1331.37156 3727.9648,1326.46874 3739.73157,1318.62423 L3739.73157,1395.10822 Z M3912.31083,1184.28696 C3912.31083,1101.91959 3877.99109,1031.31898 3704.43126,1031.31898 C3553.42441,1031.31898 3490.66831,1090.15282 3490.66831,1209.78163 L3657.36419,1209.78163 C3657.36419,1179.38414 3663.24758,1148.98666 3703.4507,1148.98666 C3724.04254,1148.98666 3739.73157,1163.69512 3739.73157,1190.17035 C3739.73157,1224.49009 3726.00367,1236.25686 3686.78111,1245.08193 L3598.53035,1265.67378 C3526.94918,1282.34336 3472.0376,1314.70198 3472.0376,1432.36966 C3472.0376,1535.32888 3515.18241,1589.2599 3616.1805,1589.2599 C3670.11152,1589.2599 3718.15916,1570.62918 3740.71213,1518.65929 L3742.67326,1519.63985 C3742.67326,1537.29 3744.63439,1556.90128 3751.49834,1575.532 L3929.96098,1575.532 C3918.19422,1551.0179 3912.31083,1524.54267 3912.31083,1497.08688 L3912.31083,1184.28696 Z M3967.22242,1430.40853 L3967.22242,1575.532 L4385.92324,1575.532 L4385.92324,1428.4474 L4191.77157,1428.4474 L4379.0593,1186.24809 L4379.0593,1045.04688 L3976.04749,1045.04688 L3976.04749,1192.13148 L4145.68506,1192.13148 L3967.22242,1430.40853 Z M4434.95144,1575.532 L4625.18086,1575.532 L4625.18086,1045.04688 L4434.95144,1045.04688 L4434.95144,1575.532 Z M4434.95144,1002.88262 L4625.18086,1002.88262 L4625.18086,867.564792 L4434.95144,867.564792 L4434.95144,1002.88262 Z M4859.53566,1341.1772 L5120.36568,1341.1772 L5120.36568,1332.35213 C5120.36568,1166.63681 5118.40455,1031.31898 4901.69991,1031.31898 C4691.85921,1031.31898 4669.30624,1160.75343 4669.30624,1309.79916 C4669.30624,1459.82545 4691.85921,1589.2599 4901.69991,1589.2599 C4966.41713,1589.2599 5020.34815,1574.55144 5057.60958,1543.17339 C5094.87102,1511.79534 5114.4823,1461.78658 5114.4823,1389.22484 L4941.90303,1389.22484 C4941.90303,1443.15586 4937.98078,1477.4756 4900.71934,1477.4756 C4861.49678,1477.4756 4859.53566,1439.2336 4859.53566,1410.79725 L4859.53566,1341.1772 Z M4941.90303,1241.15968 L4859.53566,1241.15968 L4859.53566,1209.78163 C4859.53566,1157.81174 4872.28299,1143.10328 4899.73878,1143.10328 C4930.13626,1143.10328 4941.90303,1157.81174 4941.90303,1209.78163 L4941.90303,1241.15968 Z M5199.79136,1110.74466 L5218.42208,1365.6913 L5365.50668,1365.6913 L5384.1374,1110.74466 L5384.1374,875.409304 L5199.79136,875.409304 L5199.79136,1110.74466 Z M5202.73306,1575.532 L5381.1957,1575.532 L5381.1957,1410.79725 L5202.73306,1410.79725 L5202.73306,1575.532 Z" id="Grazie!"></path>
            </g>
        </g>
    </g>
</svg>